<svg id="visual" viewBox="0 0 900 600" width="900" height="600" xmlns="http://www.w3.org/2000/svg" xmlns:xlink="http://www.w3.org/1999/xlink" version="1.1"><path d="M0 485L15 490.7C30 496.3 60 507.7 90 518.3C120 529 150 539 180 541.8C210 544.7 240 540.3 270 538C300 535.7 330 535.3 360 530.5C390 525.7 420 516.3 450 512.7C480 509 510 511 540 516.8C570 522.7 600 532.3 630 537C660 541.7 690 541.3 720 542C750 542.7 780 544.3 810 534.8C840 525.3 870 504.7 885 494.3L900 484L900 601L885 601C870 601 840 601 810 601C780 601 750 601 720 601C690 601 660 601 630 601C600 601 570 601 540 601C510 601 480 601 450 601C420 601 390 601 360 601C330 601 300 601 270 601C240 601 210 601 180 601C150 601 120 601 90 601C60 601 30 601 15 601L0 601Z" fill="#b0d9fa"></path><path d="M0 529L15 529.3C30 529.7 60 530.3 90 532.2C120 534 150 537 180 538.5C210 540 240 540 270 542.8C300 545.7 330 551.3 360 549.2C390 547 420 537 450 538.5C480 540 510 553 540 555.8C570 558.7 600 551.3 630 542.2C660 533 690 522 720 522C750 522 780 533 810 537C840 541 870 538 885 536.5L900 535L900 601L885 601C870 601 840 601 810 601C780 601 750 601 720 601C690 601 660 601 630 601C600 601 570 601 540 601C510 601 480 601 450 601C420 601 390 601 360 601C330 601 300 601 270 601C240 601 210 601 180 601C150 601 120 601 90 601C60 601 30 601 15 601L0 601Z" fill="#65798a"></path><path d="M0 551L15 552.8C30 554.7 60 558.3 90 563.7C120 569 150 576 180 573.3C210 570.7 240 558.3 270 552.8C300 547.3 330 548.7 360 554C390 559.3 420 568.7 450 568.5C480 568.3 510 558.7 540 553.3C570 548 600 547 630 555C660 563 690 580 720 585.7C750 591.3 780 585.7 810 576.3C840 567 870 554 885 547.5L900 541L900 601L885 601C870 601 840 601 810 601C780 601 750 601 720 601C690 601 660 601 630 601C600 601 570 601 540 601C510 601 480 601 450 601C420 601 390 601 360 601C330 601 300 601 270 601C240 601 210 601 180 601C150 601 120 601 90 601C60 601 30 601 15 601L0 601Z" fill="#212529"></path></svg>