<svg id="visual" viewBox="0 0 900 600" width="900" height="600" xmlns="http://www.w3.org/2000/svg" xmlns:xlink="http://www.w3.org/1999/xlink" version="1.1"><path d="M0 25L25 22C50 19 100 13 150 12C200 11 250 15 300 23C350 31 400 43 450 43C500 43 550 31 600 24C650 17 700 15 750 15C800 15 850 17 875 18L900 19L900 0L875 0C850 0 800 0 750 0C700 0 650 0 600 0C550 0 500 0 450 0C400 0 350 0 300 0C250 0 200 0 150 0C100 0 50 0 25 0L0 0Z" fill="#ffffff"></path><path d="M0 73L25 69C50 65 100 57 150 51C200 45 250 41 300 56C350 71 400 105 450 112C500 119 550 99 600 94C650 89 700 99 750 108C800 117 850 125 875 129L900 133L900 17L875 16C850 15 800 13 750 13C700 13 650 15 600 22C550 29 500 41 450 41C400 41 350 29 300 21C250 13 200 9 150 10C100 11 50 17 25 20L0 23Z" fill="#eff5fe"></path><path d="M0 91L25 88C50 85 100 79 150 74C200 69 250 65 300 83C350 101 400 141 450 149C500 157 550 133 600 126C650 119 700 129 750 137C800 145 850 151 875 154L900 157L900 131L875 127C850 123 800 115 750 106C700 97 650 87 600 92C550 97 500 117 450 110C400 103 350 69 300 54C250 39 200 43 150 49C100 55 50 63 25 67L0 71Z" fill="#dfecfe"></path><path d="M0 175L25 179C50 183 100 191 150 197C200 203 250 207 300 221C350 235 400 259 450 251C500 243 550 203 600 199C650 195 700 227 750 244C800 261 850 263 875 264L900 265L900 155L875 152C850 149 800 143 750 135C700 127 650 117 600 124C550 131 500 155 450 147C400 139 350 99 300 81C250 63 200 67 150 72C100 77 50 83 25 86L0 89Z" fill="#cee2fd"></path><path d="M0 217L25 219C50 221 100 225 150 226C200 227 250 225 300 244C350 263 400 303 450 296C500 289 550 235 600 222C650 209 700 237 750 255C800 273 850 281 875 285L900 289L900 263L875 262C850 261 800 259 750 242C700 225 650 193 600 197C550 201 500 241 450 249C400 257 350 233 300 219C250 205 200 201 150 195C100 189 50 181 25 177L0 173Z" fill="#bdd9fc"></path><path d="M0 337L25 352C50 367 100 397 150 389C200 381 250 335 300 337C350 339 400 389 450 384C500 379 550 319 600 323C650 327 700 395 750 419C800 443 850 423 875 413L900 403L900 287L875 283C850 279 800 271 750 253C700 235 650 207 600 220C550 233 500 287 450 294C400 301 350 261 300 242C250 223 200 225 150 224C100 223 50 219 25 217L0 215Z" fill="#abcffc"></path><path d="M0 343L25 363C50 383 100 423 150 426C200 429 250 395 300 396C350 397 400 433 450 425C500 417 550 365 600 374C650 383 700 453 750 470C800 487 850 451 875 433L900 415L900 401L875 411C850 421 800 441 750 417C700 393 650 325 600 321C550 317 500 377 450 382C400 387 350 337 300 335C250 333 200 379 150 387C100 395 50 365 25 350L0 335Z" fill="#98c6fa"></path><path d="M0 475L25 478C50 481 100 487 150 490C200 493 250 493 300 496C350 499 400 505 450 519C500 533 550 555 600 560C650 565 700 553 750 548C800 543 850 545 875 546L900 547L900 413L875 431C850 449 800 485 750 468C700 451 650 381 600 372C550 363 500 415 450 423C400 431 350 395 300 394C250 393 200 427 150 424C100 421 50 381 25 361L0 341Z" fill="#83bdf9"></path><path d="M0 565L25 562C50 559 100 553 150 554C200 555 250 563 300 563C350 563 400 555 450 557C500 559 550 571 600 579C650 587 700 591 750 588C800 585 850 575 875 570L900 565L900 545L875 544C850 543 800 541 750 546C700 551 650 563 600 558C550 553 500 531 450 517C400 503 350 497 300 494C250 491 200 491 150 488C100 485 50 479 25 476L0 473Z" fill="#6cb5f8"></path><path d="M0 601L25 601C50 601 100 601 150 601C200 601 250 601 300 601C350 601 400 601 450 601C500 601 550 601 600 601C650 601 700 601 750 601C800 601 850 601 875 601L900 601L900 563L875 568C850 573 800 583 750 586C700 589 650 585 600 577C550 569 500 557 450 555C400 553 350 561 300 561C250 561 200 553 150 552C100 551 50 557 25 560L0 563Z" fill="#4facf7"></path></svg>