<svg id="visual" viewBox="0 0 900 600" width="900" height="600" xmlns="http://www.w3.org/2000/svg" xmlns:xlink="http://www.w3.org/1999/xlink" version="1.1"><path d="M0 127L21.5 136C43 145 86 163 128.8 176.8C171.7 190.7 214.3 200.3 257.2 187.3C300 174.3 343 138.7 385.8 123.3C428.7 108 471.3 113 514.2 131.7C557 150.3 600 182.7 642.8 180.5C685.7 178.3 728.3 141.7 771.2 128.5C814 115.3 857 125.7 878.5 130.8L900 136L900 0L878.5 0C857 0 814 0 771.2 0C728.3 0 685.7 0 642.8 0C600 0 557 0 514.2 0C471.3 0 428.7 0 385.8 0C343 0 300 0 257.2 0C214.3 0 171.7 0 128.8 0C86 0 43 0 21.5 0L0 0Z" fill="#212529" stroke-linecap="round" stroke-linejoin="miter"></path></svg>